<svg width="927" height="840" viewBox="0 0 927 840" fill="none" xmlns="http://www.w3.org/2000/svg">
<mask id="mask0_341_149" style="mask-type:luminance" maskUnits="userSpaceOnUse" x="0" y="83" width="927" height="757">
<path d="M0 83.8955H927V839.896H0V83.8955Z" fill="white"/>
</mask>
<g mask="url(#mask0_341_149)">
<path d="M137.104 160.589C139.318 158.755 138.922 138.109 148.719 129.396C161.224 118.276 190.125 122.172 191.693 120.589C193.068 119.214 188.505 90.4219 203.713 85.3177C240.776 84.724 283.338 84.8594 319.963 89.1459C330.651 90.3959 356.036 93.1719 360.62 102.531C366.958 115.484 360.318 169.25 374.677 174.068C508.5 182.568 646.109 191.573 778.651 211.359C819.042 217.391 891.213 222.198 914.021 260.62C929.641 286.938 926.807 335.49 925.578 366.099C921.698 462.297 907.219 580.412 893.463 676.365C885.344 733.037 884.766 819.641 818.672 835.797C788.901 843.073 731.208 838.344 698.297 836.891C524.588 829.224 325.786 816.229 153.474 796.365C98.151 789.984 12.6093 787.573 3.01033 717.151C-7.37509 640.984 11.8124 492.354 20.6718 411.234C26.2603 360.036 37.5103 227.948 65.6926 190.474C90.651 157.281 128.193 167.938 137.114 160.578L137.104 160.589ZM340.276 134.109C341.437 132.854 339.625 120.526 340.255 116.135L322.281 125.161C322.411 133.135 337.646 136.953 340.276 134.109ZM232.213 120.661H214.255V125.073H232.213V120.661ZM344.776 156.682C340.859 152.807 318.927 167.714 322.292 170.13C330.635 174.547 352.01 163.833 344.776 156.682ZM898.583 408.953C894.911 326.974 936.432 265.578 832.088 243.484C684.167 212.167 495.047 206.193 342.594 197.156C276.641 193.245 200.812 182.698 135.927 184.151C114.562 184.625 90.953 194.578 79.8228 213.641C71.5624 227.792 52.078 319.057 58.5624 328.156L67.8905 332.359L293.151 350.745C307.943 349.198 334.422 322.891 350.786 313.578C462.812 249.818 589.187 283.719 663.083 385.557L898.578 408.953H898.583ZM438.359 306.589C180.844 337.896 204.51 751.474 477.573 733.229C753.047 714.823 732.667 270.807 438.359 306.589ZM281.745 368.427C270.271 360.542 256.094 379.458 259.25 381.875C262.625 384.453 288.62 378.391 281.745 368.427ZM153.489 409.036L146.781 415.75C146.693 420.474 158.047 413.073 153.489 409.036ZM259.229 408.974C256.859 406.547 234.573 413.927 241.266 422.438C250.271 426.792 264.536 414.401 259.229 408.974ZM136.755 430.542C137.208 430.089 142.057 419.797 139.984 418.052C131.364 422.781 128.995 425.146 124.271 433.776C126.016 435.849 136.297 431 136.755 430.542ZM117.427 435.979V440.484C120.349 438.984 120.349 437.484 117.427 435.979ZM162.495 436.068L155.792 442.781C155.703 447.5 167.052 440.104 162.495 436.068ZM145.594 457.385C146.052 456.948 151.26 446.755 148.984 445.078L119.766 469.813C125.859 467.25 142.135 460.755 145.594 457.385ZM119.698 508.037C125.833 514.005 163.927 476.073 169.109 469.724C161.083 468.943 110.786 499.38 119.698 508.037ZM52.1405 499.099C37.526 497.599 37.177 497.948 38.677 512.568L52.1405 499.099ZM173.682 503.599C148.901 502.365 127.547 548.76 158.073 521.526L173.682 503.599ZM885.073 517.094C880.823 512.271 866.781 526.255 871.609 530.563C879.198 537.328 891.865 524.813 885.073 517.094ZM817.536 521.599C814.193 518.219 775.078 546.635 781.557 553.094C785.807 557.323 824.338 528.484 817.536 521.599ZM135.479 530.677L124.266 541.896L126.38 544.016L137.594 532.797L135.479 530.677ZM774.833 553.203L768.125 559.917C768.036 564.635 779.385 557.24 774.833 553.203ZM822.036 557.641C817.125 552.729 808.172 561.693 813.078 566.604C817.99 571.521 826.948 562.557 822.036 557.641ZM808.536 566.656C804.302 562.573 787.625 576.349 790.573 584.63C794.807 588.708 811.484 574.938 808.536 566.656ZM880.573 566.656C875.661 561.74 866.703 570.703 871.615 575.62C876.526 580.531 885.479 571.568 880.573 566.656ZM786.021 584.672C772.974 583.297 770.354 597.464 763.625 604.969C770.703 607.656 791.443 590.219 786.021 584.672ZM876.068 593.688C871.161 588.771 862.203 597.734 867.115 602.646C872.021 607.563 880.979 598.599 876.068 593.688ZM79.1301 629.724C70.7343 628.557 63.5572 629.708 61.1457 638.662L79.1301 638.688V629.724ZM142.167 634.229C137.255 629.313 128.302 638.276 133.208 643.193C138.12 648.104 147.078 639.146 142.167 634.229ZM268.234 656.708C270.25 633.359 236.687 648.703 245.766 656.708H268.234ZM858.099 724.287L612.443 706.042C509.745 780.667 377.828 771.755 287.599 680.177L25.1041 661.219C17.677 756.25 56.2343 759.354 135.463 769.328C319.25 792.464 544.208 807.776 729.802 814.365C809.25 817.188 859.88 823.188 858.099 724.287ZM668.979 679.323C664.016 674.932 629.068 664.927 637.437 688.25C640.713 689.109 681.771 690.63 668.979 679.323ZM700.463 679.271C698.948 677.703 683.229 684.953 678.01 683.813V688.219L700.474 688.24C700.219 685.432 701.13 679.958 700.463 679.266V679.271ZM741.016 692.729C739.5 686.214 733.745 682.401 727.531 683.792V692.75L741.016 692.729ZM822.088 692.802C811.911 695.927 782.99 677.698 786.042 697.26C796.557 691.531 825.75 711.026 822.088 692.802ZM844.552 692.797C839.641 687.88 830.682 696.844 835.594 701.76C840.505 706.672 849.458 697.714 844.552 692.797Z" fill="#383838"/>
</g>
<mask id="mask1_341_149" style="mask-type:luminance" maskUnits="userSpaceOnUse" x="722" y="0" width="26" height="104">
<path d="M722 0H747.333V103.896H722V0Z" fill="white"/>
</mask>
<g mask="url(#mask1_341_149)">
<path d="M745.521 82.3233C743.62 99.0004 740.256 106.48 723.011 102.599V10.2452C723.011 3.0733 745.521 -6.22878 745.521 5.73997C745.521 29.4587 748.099 59.7712 745.521 82.3233Z" fill="#383838"/>
</g>
<path d="M795.073 125.104C785.083 114.724 839.281 39.6719 855.75 44.0365C871.651 48.2501 855.682 68.323 850.911 75.1563C845.281 83.2344 804.354 134.745 795.073 125.104Z" fill="#383838"/>
<path d="M912.119 134.151C913.973 136.026 912.651 150.307 907.661 154.453C902.197 158.995 848.25 173.984 844.578 170.146C845.276 164.026 841.708 156.104 847.395 151.729C855.572 145.442 905.697 127.661 912.125 134.151H912.119Z" fill="#383838"/>
<path d="M706.062 274.86C716.239 264.636 831.593 277.802 842.672 286.958C853.937 296.276 849.448 352.068 842.239 363.813C838.463 369.958 826.963 372.958 819.911 373.011C799.151 373.177 747.703 366.969 725.661 363.484C704.156 360.083 695.541 352.938 695.604 330.12C695.625 321.938 702.177 278.755 706.062 274.854V274.86ZM723.114 291.917C724.213 303.406 711.541 331.75 722.729 339.422C726.396 341.938 801.75 350.505 811.01 350.604C835.161 350.87 828.599 306.964 822.369 302.776C811.099 295.208 741.692 297.24 723.114 291.917Z" fill="#383838"/>
<path d="M447.354 360.656C666.026 335.697 679.62 662.39 477.599 679.197C272.963 696.213 249.187 383.27 447.354 360.656ZM460.713 423.598C434.969 397.687 351.583 466.895 374.026 503.588C390.63 530.739 413.76 478.192 430.25 465.166C443.838 454.421 481.995 445.025 460.719 423.604L460.713 423.598ZM481.016 599.26C475.323 604.557 472.885 617.473 482.713 620.354C508.344 627.843 566.625 573.452 560.708 551.333C553.354 523.827 527.359 571.64 520.463 577.968C507.713 589.656 486.979 593.708 481.01 599.265L481.016 599.26Z" fill="#383838"/>
</svg>
