<svg width="818" height="726" viewBox="0 0 818 726" fill="none" xmlns="http://www.w3.org/2000/svg">
<path d="M575.279 25.4526C427.014 -34.2218 257.337 15.7498 148.228 126.198C77.1563 171.374 23.7339 244.236 6.52512 327.242C-11.2146 412.766 7.49089 505.537 59.298 576.23C158.49 711.573 340.936 741.761 497.538 719.215C585.536 706.547 667.282 671.706 726.256 603.435C777.284 544.36 808.217 471.159 815.638 393.519C831.073 232.128 721.303 84.2291 575.279 25.4526ZM558.212 638.728C432.882 679.116 262.765 672.779 157.332 585.611C94.7096 533.832 60.9867 455.735 65.7873 374.615C68.7354 324.791 88.497 277.315 119.396 238.662C131.268 240.786 144.179 237.002 152.565 224.096C225.512 111.819 369.175 42.989 502.395 71.5837C626.798 98.2921 738.399 206.283 750.248 336.369C762.052 465.906 683.937 598.217 558.212 638.728Z" fill="#5DC791"/>
<path d="M336.598 278.038C338.507 260.411 328.042 241.181 305.157 241.181C282.289 241.181 271.807 260.44 273.716 278.083C271.807 295.716 282.272 314.941 305.157 314.941C328.025 314.941 338.507 295.682 336.598 278.038Z" fill="#5DC791"/>
<path d="M559.211 224.791C534.559 224.791 524.297 247.179 528.448 265.788C524.303 284.392 534.536 306.74 559.211 306.74C583.864 306.74 594.126 284.358 589.975 265.749C594.12 247.145 583.887 224.791 559.211 224.791Z" fill="#5DC791"/>
<path d="M480.38 420.668C460.895 458.18 404.107 476.067 369.232 447.568C336.819 421.086 290.168 467.205 322.869 493.931C388.773 547.777 496.459 531.805 536.988 453.758C556.416 416.364 499.859 383.172 480.38 420.668Z" fill="#5DC791"/>
</svg>
