<svg width="706" height="726" viewBox="0 0 706 726" fill="none" xmlns="http://www.w3.org/2000/svg">
<path d="M255.339 327.667C253.791 327.667 252.243 327.588 250.705 327.435C249.162 327.286 247.628 327.059 246.11 326.757C244.587 326.455 243.088 326.08 241.604 325.63C240.121 325.179 238.662 324.655 237.232 324.062C235.798 323.468 234.398 322.805 233.033 322.078C231.668 321.346 230.338 320.55 229.052 319.69C227.761 318.829 226.52 317.904 225.318 316.925C224.121 315.941 222.973 314.902 221.88 313.804C220.782 312.711 219.744 311.564 218.759 310.362C217.775 309.165 216.855 307.923 215.995 306.633C215.134 305.347 214.338 304.016 213.606 302.651C212.874 301.281 212.216 299.886 211.623 298.452C211.029 297.023 210.505 295.564 210.055 294.08C209.605 292.596 209.229 291.093 208.927 289.574C208.625 288.056 208.398 286.523 208.245 284.98C208.096 283.437 208.017 281.893 208.017 280.345C208.017 278.792 208.096 277.249 208.245 275.706C208.398 274.163 208.625 272.63 208.927 271.111C209.229 269.593 209.605 268.09 210.055 266.606C210.505 265.122 211.029 263.663 211.623 262.234C212.216 260.799 212.874 259.405 213.606 258.035C214.338 256.67 215.134 255.339 215.995 254.053C216.855 252.762 217.775 251.521 218.759 250.324C219.744 249.122 220.782 247.975 221.88 246.882C222.973 245.784 224.121 244.745 225.318 243.761C226.52 242.782 227.761 241.857 229.052 240.996C230.338 240.136 231.668 239.339 233.033 238.607C234.398 237.88 235.798 237.218 237.232 236.624C238.662 236.031 240.121 235.506 241.604 235.056C243.088 234.611 244.587 234.23 246.11 233.929C247.628 233.627 249.162 233.399 250.705 233.251C252.243 233.098 253.791 233.019 255.339 233.019C256.892 233.019 258.435 233.098 259.978 233.251C261.521 233.399 263.054 233.627 264.573 233.929C266.091 234.23 267.595 234.611 269.079 235.056C270.562 235.506 272.016 236.031 273.451 236.624C274.88 237.218 276.28 237.88 277.65 238.607C279.015 239.339 280.34 240.136 281.631 240.996C282.922 241.857 284.163 242.782 285.36 243.761C286.557 244.745 287.705 245.784 288.803 246.882C289.901 247.975 290.939 249.122 291.923 250.324C292.903 251.521 293.828 252.762 294.688 254.053C295.549 255.339 296.345 256.67 297.077 258.035C297.804 259.405 298.467 260.799 299.06 262.234C299.654 263.663 300.173 265.122 300.623 266.606C301.073 268.09 301.449 269.593 301.756 271.111C302.057 272.63 302.285 274.163 302.433 275.706C302.587 277.249 302.661 278.792 302.661 280.345C302.661 281.893 302.587 283.437 302.433 284.98C302.285 286.523 302.057 288.056 301.756 289.574C301.449 291.093 301.073 292.596 300.623 294.08C300.173 295.564 299.654 297.023 299.06 298.452C298.467 299.886 297.804 301.281 297.077 302.651C296.345 304.016 295.549 305.347 294.688 306.633C293.828 307.923 292.903 309.165 291.923 310.362C290.939 311.564 289.901 312.711 288.803 313.804C287.705 314.902 286.557 315.941 285.36 316.925C284.163 317.904 282.922 318.829 281.631 319.69C280.34 320.55 279.015 321.346 277.65 322.078C276.28 322.805 274.88 323.468 273.451 324.062C272.016 324.655 270.562 325.179 269.079 325.63C267.595 326.08 266.091 326.455 264.573 326.757C263.054 327.059 261.521 327.286 259.978 327.435C258.435 327.588 256.892 327.667 255.339 327.667ZM255.339 275.662C254.721 275.662 254.122 275.78 253.549 276.018C252.975 276.255 252.47 276.596 252.03 277.032C251.59 277.472 251.254 277.976 251.016 278.55C250.779 279.124 250.66 279.722 250.66 280.345C250.66 285.543 260.023 285.543 260.023 280.345C260.023 279.722 259.904 279.124 259.667 278.55C259.429 277.976 259.088 277.472 258.648 277.032C258.212 276.596 257.703 276.255 257.129 276.018C256.561 275.78 255.962 275.662 255.339 275.662Z" fill="#ED7067"/>
<path d="M348.944 726C160.176 726 7.28977 569.993 0.271613 369.785C-5.1886 212.74 71.7737 98.3325 222.32 39.0515C283.683 14.8713 425.649 -14.512 445.408 8.11032L467.249 34.1106L437.346 49.1905L432.929 49.972C440.714 50.8523 448.454 52.0196 456.15 53.4786C463.846 54.9327 471.477 56.6736 479.044 58.6964C486.611 60.7242 494.095 63.0241 501.489 65.6058C508.883 68.1875 516.173 71.0413 523.359 74.1671C530.541 77.2879 537.598 80.6758 544.527 84.3258C551.461 87.9759 558.247 91.8781 564.889 96.0326C571.527 100.187 578.006 104.584 584.317 109.218C590.633 113.857 596.765 118.724 602.715 123.813C606.969 127.775 611.113 131.846 615.144 136.03C619.18 140.214 623.097 144.502 626.895 148.894C630.699 153.291 634.374 157.786 637.935 162.381C641.491 166.976 644.918 171.665 648.222 176.447C651.526 181.225 654.696 186.092 657.738 191.047C660.775 195.998 663.678 201.028 666.443 206.137C669.212 211.251 671.838 216.429 674.321 221.682C676.809 226.934 679.148 232.251 681.349 237.632C683.545 243.008 685.593 248.444 687.497 253.934C689.401 259.424 691.152 264.963 692.754 270.547C694.362 276.136 695.811 281.759 697.107 287.422C698.408 293.085 699.55 298.783 700.539 304.505C701.528 310.232 702.359 315.979 703.037 321.751C703.719 327.523 704.239 333.31 704.6 339.106C704.966 344.908 705.173 350.714 705.223 356.525C705.272 362.332 705.164 368.143 704.901 373.945C704.872 379.707 704.699 385.459 704.387 391.211C704.08 396.963 703.63 402.7 703.037 408.427C702.448 414.159 701.716 419.867 700.846 425.56C699.975 431.252 698.971 436.925 697.824 442.568C696.676 448.212 695.395 453.82 693.971 459.404C692.552 464.983 690.999 470.527 689.307 476.032C687.616 481.537 685.791 486.997 683.832 492.413C681.874 497.833 679.786 503.195 677.566 508.511C675.35 513.823 673.001 519.081 670.523 524.279C668.05 529.482 665.448 534.616 662.718 539.69C659.993 544.759 657.144 549.765 654.172 554.696C651.199 559.632 648.113 564.488 644.903 569.271C641.693 574.054 638.37 578.757 634.932 583.377C631.495 587.996 627.949 592.531 624.289 596.978C620.629 601.424 616.865 605.776 612.993 610.04C609.12 614.303 605.149 618.472 601.073 622.543C596.998 626.608 592.824 630.575 588.555 634.442C584.287 638.31 579.925 642.069 575.474 645.719C571.022 649.374 566.482 652.915 561.858 656.343C557.233 659.775 552.525 663.094 547.737 666.294C542.95 669.494 538.088 672.575 533.152 675.542C528.211 678.505 523.206 681.349 518.131 684.064C513.052 686.784 507.913 689.381 502.71 691.849C497.507 694.317 492.245 696.656 486.928 698.867C481.611 701.078 476.245 703.16 470.824 705.109C465.404 707.057 459.943 708.877 454.434 710.559C448.929 712.241 443.38 713.789 437.796 715.198C432.217 716.613 426.599 717.889 420.955 719.026C415.312 720.164 409.639 721.163 403.947 722.024C398.254 722.884 392.542 723.606 386.809 724.19C381.082 724.773 375.34 725.214 369.588 725.515C363.841 725.817 358.084 725.98 352.327 726H348.944ZM296.943 70.5121C280.77 74.1918 264.919 78.9299 249.379 84.7314C233.844 90.5329 218.764 97.3383 204.139 105.158C189.515 112.977 175.473 121.731 162.021 131.43C148.563 141.124 135.817 151.673 123.774 163.079C117.414 169.884 111.425 177.001 105.801 184.43C100.183 191.863 94.9598 199.564 90.1426 207.537C85.3204 215.509 80.9285 223.71 76.9619 232.137C72.9953 240.57 69.4788 249.181 66.4124 257.979C63.341 266.773 60.7346 275.705 58.593 284.771C56.4564 293.842 54.7897 302.997 53.6027 312.235C52.4157 321.474 51.7084 330.753 51.4858 340.066C51.2633 349.379 51.5254 358.682 52.2722 367.965C58.2518 539.314 188.515 673.999 348.944 673.999H352.327C357.218 673.975 362.11 673.831 366.996 673.569C371.883 673.302 376.764 672.921 381.631 672.422C386.503 671.922 391.354 671.304 396.192 670.567C401.034 669.83 405.851 668.979 410.648 668.005C415.446 667.036 420.214 665.948 424.962 664.746C429.705 663.544 434.418 662.228 439.097 660.794C443.776 659.36 448.42 657.817 453.024 656.16C457.629 654.503 462.194 652.732 466.709 650.853C471.23 648.973 475.701 646.985 480.123 644.888C484.544 642.791 488.916 640.585 493.229 638.276C497.547 635.966 501.8 633.552 505.999 631.04C510.198 628.522 514.333 625.906 518.403 623.186C522.474 620.47 526.475 617.651 530.407 614.738C534.344 611.83 538.202 608.823 541.99 605.722C545.779 602.621 549.488 599.431 553.118 596.152C556.753 592.868 560.305 589.505 563.772 586.047C567.239 582.595 570.622 579.059 573.916 575.443C577.214 571.823 580.419 568.129 583.535 564.355C586.656 560.581 589.678 556.733 592.606 552.811C595.539 548.889 598.368 544.903 601.103 540.842C603.838 536.782 606.474 532.662 609.011 528.473C611.544 524.289 613.977 520.04 616.306 515.737C618.631 511.429 620.857 507.072 622.973 502.66C625.09 498.244 627.098 493.783 628.997 489.272C630.897 484.761 632.682 480.206 634.359 475.607C636.04 471.012 637.603 466.373 639.057 461.699C640.506 457.025 641.847 452.322 643.068 447.578C644.295 442.84 645.398 438.078 646.392 433.28C647.381 428.488 648.257 423.675 649.013 418.838C649.77 414.006 650.413 409.154 650.932 404.288C651.457 399.421 651.857 394.544 652.139 389.658C652.426 384.771 652.589 379.88 652.639 374.988C652.891 370.102 653.01 365.215 652.995 360.329C652.985 355.437 652.841 350.551 652.564 345.669C652.287 340.788 651.877 335.916 651.338 331.054C650.799 326.198 650.131 321.356 649.33 316.533C648.529 311.706 647.594 306.909 646.535 302.136C645.472 297.363 644.285 292.62 642.969 287.912C641.654 283.203 640.21 278.534 638.642 273.9C637.069 269.271 635.378 264.686 633.562 260.146C631.742 255.605 629.804 251.12 627.746 246.683C625.689 242.252 623.508 237.875 621.213 233.557C618.918 229.239 616.504 224.986 613.982 220.802C611.455 216.612 608.818 212.497 606.069 208.452C603.324 204.411 600.465 200.439 597.502 196.552C594.54 192.66 591.473 188.851 588.308 185.127C585.138 181.403 581.873 177.768 578.51 174.222C575.142 170.67 571.685 167.218 568.134 163.855C509.629 112.117 423.829 90.5329 326.322 101.973L305.005 104.574L298.244 84.034C297.087 81.7886 296.37 79.4097 296.102 76.8972C295.835 74.3896 296.028 71.9117 296.681 69.4734L296.943 70.5121Z" fill="#ED7067"/>
<path d="M456.328 327.923C454.78 327.923 453.232 327.849 451.689 327.696C450.146 327.542 448.618 327.315 447.099 327.013C445.576 326.711 444.077 326.335 442.594 325.885C441.11 325.435 439.651 324.916 438.221 324.322C436.787 323.729 435.387 323.066 434.022 322.334C432.652 321.607 431.327 320.811 430.036 319.95C428.75 319.09 427.504 318.165 426.307 317.181C425.11 316.196 423.963 315.158 422.87 314.065C421.772 312.967 420.733 311.819 419.749 310.622C418.765 309.426 417.845 308.179 416.984 306.893C416.123 305.602 415.327 304.277 414.595 302.907C413.863 301.542 413.2 300.142 412.607 298.713C412.018 297.279 411.494 295.82 411.044 294.341C410.594 292.857 410.218 291.353 409.916 289.835C409.615 288.312 409.387 286.783 409.234 285.24C409.081 283.697 409.006 282.149 409.006 280.601C409.006 279.053 409.081 277.505 409.234 275.962C409.387 274.419 409.615 272.891 409.916 271.367C410.218 269.849 410.594 268.345 411.044 266.867C411.494 265.383 412.018 263.924 412.607 262.494C413.2 261.06 413.863 259.66 414.595 258.295C415.327 256.925 416.123 255.6 416.984 254.309C417.845 253.023 418.765 251.777 419.749 250.58C420.733 249.383 421.772 248.236 422.87 247.138C423.963 246.045 425.11 245.006 426.307 244.022C427.504 243.037 428.75 242.118 430.036 241.257C431.327 240.391 432.652 239.6 434.022 238.868C435.387 238.136 436.787 237.473 438.221 236.88C439.651 236.286 441.11 235.767 442.594 235.317C444.077 234.867 445.576 234.491 447.099 234.189C448.618 233.888 450.146 233.66 451.689 233.507C453.232 233.353 454.78 233.279 456.328 233.279C457.881 233.279 459.424 233.353 460.967 233.507C462.511 233.66 464.039 233.888 465.562 234.189C467.08 234.491 468.584 234.867 470.068 235.317C471.547 235.767 473.006 236.286 474.44 236.88C475.869 237.473 477.269 238.136 478.639 238.868C480.004 239.6 481.329 240.391 482.62 241.257C483.906 242.118 485.153 243.037 486.349 244.022C487.546 245.006 488.694 246.045 489.792 247.138C490.885 248.236 491.928 249.383 492.908 250.58C493.892 251.777 494.817 253.023 495.677 254.309C496.538 255.6 497.334 256.925 498.061 258.295C498.793 259.66 499.456 261.06 500.049 262.494C500.643 263.924 501.162 265.383 501.612 266.867C502.062 268.345 502.438 269.849 502.74 271.367C503.042 272.891 503.269 274.419 503.423 275.962C503.576 277.505 503.65 279.053 503.65 280.601C503.64 282.149 503.561 283.692 503.398 285.23C503.24 286.774 503.007 288.297 502.7 289.815C502.389 291.334 502.008 292.832 501.553 294.311C501.103 295.79 500.574 297.244 499.98 298.673C499.382 300.098 498.719 301.492 497.987 302.857C497.255 304.223 496.459 305.548 495.598 306.829C494.733 308.115 493.813 309.356 492.829 310.553C491.849 311.75 490.811 312.893 489.713 313.986C488.62 315.084 487.477 316.122 486.28 317.102C485.083 318.086 483.842 319.006 482.561 319.871C481.275 320.732 479.95 321.528 478.585 322.26C477.224 322.992 475.825 323.655 474.4 324.253C472.971 324.847 471.517 325.376 470.038 325.826C468.559 326.281 467.061 326.662 465.542 326.973C464.029 327.28 462.501 327.513 460.958 327.671C459.419 327.829 457.876 327.913 456.328 327.923ZM456.328 275.922C455.71 275.922 455.112 276.041 454.538 276.278C453.964 276.516 453.46 276.852 453.019 277.292C452.579 277.733 452.243 278.237 452.006 278.811C451.768 279.384 451.649 279.983 451.649 280.601C451.649 285.804 460.75 285.804 460.75 280.601C460.75 280.003 460.641 279.424 460.418 278.87C460.201 278.311 459.884 277.817 459.474 277.381C459.058 276.946 458.584 276.6 458.039 276.348C457.495 276.095 456.927 275.957 456.328 275.922Z" fill="#ED7067"/>
<path d="M508.329 517.992C506.622 518.002 504.926 517.843 503.244 517.517C501.563 517.196 499.931 516.706 498.348 516.063C496.765 515.415 495.262 514.619 493.832 513.674C492.408 512.729 491.088 511.656 489.871 510.449L456.328 476.649L422.785 510.192C422.187 510.791 421.559 511.354 420.901 511.894C420.243 512.428 419.561 512.932 418.853 513.402C418.146 513.872 417.419 514.307 416.672 514.703C415.921 515.103 415.154 515.464 414.372 515.786C413.586 516.112 412.79 516.394 411.979 516.642C411.163 516.884 410.342 517.092 409.511 517.255C408.68 517.423 407.839 517.547 406.993 517.626C406.153 517.71 405.307 517.754 404.456 517.754C403.61 517.754 402.76 517.71 401.919 517.626C401.073 517.547 400.237 517.423 399.401 517.255C398.571 517.092 397.75 516.884 396.938 516.642C396.122 516.394 395.326 516.112 394.545 515.786C393.758 515.464 392.992 515.103 392.245 514.703C391.493 514.307 390.766 513.872 390.059 513.402C389.351 512.932 388.669 512.428 388.016 511.894C387.358 511.354 386.725 510.791 386.127 510.192L352.327 476.649L318.784 510.192C318.181 510.791 317.553 511.354 316.895 511.894C316.237 512.428 315.554 512.932 314.847 513.402C314.145 513.872 313.413 514.307 312.666 514.703C311.919 515.103 311.153 515.464 310.366 515.786C309.585 516.112 308.784 516.394 307.973 516.642C307.161 516.884 306.34 517.092 305.505 517.255C304.674 517.423 303.838 517.547 302.992 517.626C302.146 517.71 301.301 517.754 300.45 517.754C299.604 517.754 298.758 517.71 297.913 517.626C297.067 517.547 296.231 517.423 295.4 517.255C294.564 517.092 293.743 516.884 292.932 516.642C292.121 516.394 291.32 516.112 290.538 515.786C289.752 515.464 288.985 515.103 288.239 514.703C287.487 514.307 286.76 513.872 286.057 513.402C285.35 512.932 284.668 512.428 284.01 511.894C283.352 511.354 282.724 510.791 282.121 510.192L248.321 476.649L214.778 510.192C214.165 510.716 213.527 511.216 212.864 511.681C212.201 512.151 211.524 512.586 210.821 512.987C210.119 513.392 209.397 513.758 208.66 514.094C207.923 514.431 207.176 514.732 206.41 515C205.643 515.267 204.871 515.494 204.085 515.687C203.299 515.885 202.502 516.038 201.701 516.157C200.9 516.281 200.099 516.36 199.288 516.404C198.481 516.449 197.67 516.454 196.864 516.424C196.053 516.394 195.247 516.325 194.446 516.216C193.644 516.112 192.848 515.969 192.057 515.786C191.27 515.603 190.489 515.39 189.722 515.133C188.951 514.881 188.194 514.594 187.452 514.268C186.71 513.941 185.988 513.585 185.281 513.194C184.569 512.804 183.881 512.378 183.214 511.923C182.546 511.463 181.898 510.979 181.275 510.459C180.652 509.945 180.053 509.401 179.479 508.827C178.906 508.253 178.362 507.655 177.847 507.032C177.328 506.409 176.843 505.766 176.388 505.098C175.933 504.425 175.508 503.738 175.117 503.031C174.722 502.323 174.365 501.596 174.039 500.854C173.718 500.113 173.426 499.356 173.173 498.589C172.921 497.818 172.704 497.041 172.521 496.25C172.343 495.463 172.199 494.667 172.09 493.861C171.986 493.06 171.917 492.254 171.883 491.447C171.853 490.636 171.858 489.83 171.902 489.019C171.947 488.213 172.031 487.407 172.15 486.605C172.268 485.804 172.427 485.013 172.62 484.227C172.812 483.44 173.045 482.664 173.307 481.897C173.574 481.135 173.876 480.384 174.212 479.647C174.548 478.91 174.919 478.193 175.32 477.49C175.726 476.788 176.161 476.105 176.626 475.443C177.096 474.785 177.59 474.147 178.119 473.529L230.12 421.528C230.723 420.93 231.351 420.361 232.009 419.827C232.667 419.288 233.345 418.788 234.052 418.318C234.759 417.848 235.486 417.413 236.238 417.012C236.985 416.617 237.751 416.256 238.538 415.929C239.319 415.608 240.12 415.321 240.932 415.079C241.743 414.831 242.564 414.629 243.395 414.46C244.23 414.297 245.066 414.174 245.912 414.089C246.758 414.005 247.604 413.966 248.449 413.966C249.3 413.966 250.146 414.005 250.991 414.089C251.832 414.174 252.673 414.297 253.504 414.46C254.335 414.629 255.156 414.831 255.972 415.079C256.783 415.321 257.579 415.608 258.366 415.929C259.147 416.256 259.914 416.617 260.665 417.012C261.412 417.413 262.139 417.848 262.847 418.318C263.554 418.788 264.236 419.288 264.894 419.827C265.552 420.361 266.18 420.93 266.779 421.528L300.321 455.328L333.864 421.785C334.467 421.192 335.096 420.623 335.753 420.084C336.411 419.55 337.089 419.045 337.796 418.575C338.503 418.105 339.23 417.67 339.982 417.275C340.729 416.874 341.495 416.513 342.282 416.191C343.063 415.865 343.865 415.583 344.676 415.336C345.487 415.093 346.308 414.886 347.139 414.723C347.975 414.559 348.81 414.436 349.656 414.352C350.502 414.268 351.348 414.228 352.193 414.228C353.044 414.228 353.89 414.268 354.735 414.352C355.576 414.436 356.417 414.559 357.248 414.723C358.079 414.886 358.905 415.093 359.716 415.336C360.527 415.583 361.323 415.865 362.11 416.191C362.891 416.513 363.658 416.874 364.41 417.275C365.156 417.67 365.883 418.105 366.591 418.575C367.298 419.045 367.98 419.55 368.638 420.084C369.296 420.623 369.924 421.192 370.528 421.785L404.327 455.328L437.87 421.785C438.469 421.192 439.097 420.623 439.755 420.084C440.412 419.55 441.095 419.045 441.802 418.575C442.509 418.105 443.236 417.67 443.983 417.275C444.735 416.874 445.502 416.513 446.283 416.191C447.069 415.865 447.866 415.583 448.677 415.336C449.493 415.093 450.314 414.886 451.145 414.723C451.976 414.559 452.817 414.436 453.662 414.352C454.503 414.268 455.349 414.228 456.2 414.228C457.045 414.228 457.896 414.268 458.737 414.352C459.582 414.436 460.418 414.559 461.254 414.723C462.085 414.886 462.906 415.093 463.717 415.336C464.533 415.583 465.33 415.865 466.111 416.191C466.897 416.513 467.664 416.874 468.411 417.275C469.163 417.67 469.89 418.105 470.597 418.575C471.304 419.045 471.987 419.55 472.64 420.084C473.297 420.623 473.93 421.192 474.529 421.785L526.529 473.791C527.42 474.691 528.236 475.655 528.978 476.679C529.724 477.703 530.392 478.771 530.981 479.894C531.569 481.017 532.074 482.169 532.494 483.366C532.915 484.558 533.246 485.78 533.488 487.021C533.731 488.262 533.879 489.514 533.938 490.78C533.998 492.046 533.963 493.307 533.839 494.563C533.716 495.825 533.498 497.066 533.192 498.297C532.885 499.524 532.489 500.721 532.009 501.893C531.525 503.065 530.961 504.193 530.313 505.281C529.67 506.369 528.948 507.403 528.147 508.387C527.35 509.366 526.485 510.286 525.555 511.142C524.62 511.997 523.631 512.784 522.588 513.496C521.539 514.208 520.446 514.836 519.309 515.39C518.166 515.944 516.994 516.409 515.787 516.79C514.58 517.171 513.354 517.463 512.102 517.66C510.856 517.863 509.595 517.972 508.329 517.992Z" fill="#ED7067"/>
</svg>
