<svg width="806" height="726" viewBox="0 0 806 726" fill="none" xmlns="http://www.w3.org/2000/svg">
<path d="M567.474 25.4526C421.22 -34.2218 253.846 15.7498 146.217 126.198C76.1094 171.374 23.4119 244.236 6.43659 327.242C-11.0624 412.766 7.38925 505.537 58.4934 576.23C156.34 711.573 336.31 741.761 490.787 719.215C577.591 706.547 658.228 671.706 716.402 603.435C766.737 544.36 797.25 471.159 804.571 393.519C819.797 232.128 711.516 84.2291 567.474 25.4526ZM550.638 638.728C427.008 679.116 259.2 672.779 155.197 585.611C93.4246 533.832 60.1592 455.735 64.8947 374.615C67.8028 324.791 87.2963 277.315 117.776 238.662C129.487 240.786 142.222 237.002 150.495 224.096C222.452 111.819 364.166 42.989 495.578 71.5837C618.294 98.2921 728.38 206.283 740.068 336.369C751.712 465.906 674.657 598.217 550.638 638.728Z" fill="#F9D553"/>
<path d="M332.031 278.037C333.915 260.41 323.591 241.18 301.017 241.18C278.459 241.18 268.119 260.439 270.002 278.082C268.119 295.715 278.443 314.94 301.017 314.94C323.574 314.94 333.915 295.681 332.031 278.037Z" fill="#F9D553"/>
<path d="M551.624 224.79C527.306 224.79 517.183 247.178 521.278 265.787C517.189 284.391 527.284 306.739 551.624 306.739C575.942 306.739 586.065 284.357 581.97 265.748C586.059 247.144 575.964 224.79 551.624 224.79Z" fill="#F9D553"/>
</svg>
